# Blender v2.74 (sub 0) OBJ File: 'skydome.blend'
# www.blender.org
v 0.000000 -1.000000 0.000000
v 0.723607 -0.447220 0.525725
v -0.276388 -0.447220 0.850649
v -0.894426 -0.447216 0.000000
v -0.276388 -0.447220 -0.850649
v 0.723607 -0.447220 -0.525725
v 0.276388 0.447220 0.850649
v -0.723607 0.447220 0.525725
v -0.723607 0.447220 -0.525725
v 0.276388 0.447220 -0.850649
v 0.894426 0.447216 0.000000
v 0.000000 1.000000 0.000000
v -0.162456 -0.850654 0.499995
v 0.425323 -0.850654 0.309011
v 0.262869 -0.525738 0.809012
v 0.850648 -0.525736 0.000000
v 0.425323 -0.850654 -0.309011
v -0.525730 -0.850652 0.000000
v -0.688189 -0.525736 0.499997
v -0.162456 -0.850654 -0.499995
v -0.688189 -0.525736 -0.499997
v 0.262869 -0.525738 -0.809012
v 0.951058 0.000000 0.309013
v 0.951058 0.000000 -0.309013
v 0.000000 0.000000 1.000000
v 0.587786 0.000000 0.809017
v -0.951058 0.000000 0.309013
v -0.587786 0.000000 0.809017
v -0.587786 0.000000 -0.809017
v -0.951058 0.000000 -0.309013
v 0.587786 0.000000 -0.809017
v 0.000000 0.000000 -1.000000
v 0.688189 0.525736 0.499997
v -0.262869 0.525738 0.809012
v -0.850648 0.525736 0.000000
v -0.262869 0.525738 -0.809012
v 0.688189 0.525736 -0.499997
v 0.162456 0.850654 0.499995
v 0.525730 0.850652 0.000000
v -0.425323 0.850654 0.309011
v -0.425323 0.850654 -0.309011
v 0.162456 0.850654 -0.499995
vt 0.579854 0.844099
vt 0.535039 1.000000
vt 0.450239 0.857572
vt 0.331147 0.844097
vt 0.378896 0.680684
vt 0.662293 0.911137
vt 0.656140 0.713788
vt 0.525083 0.680686
vt 0.562547 0.093998
vt 0.447193 0.165910
vt 0.463505 0.000000
vt 0.742952 0.690482
vt 0.663358 0.816935
vt 0.662293 0.619404
vt 0.991502 0.702798
vt 0.939574 0.863745
vt 0.872834 0.683434
vt 0.108243 0.442899
vt 0.095488 0.268448
vt 0.223598 0.370988
vt 0.805796 0.460349
vt 0.868814 0.319609
vt 0.932195 0.460349
vt 0.575304 0.268448
vt 0.793479 0.856507
vt 0.326196 0.268450
vt 0.223598 0.165910
vt 0.335396 0.102540
vt 0.000000 0.370986
vt 0.722719 0.326847
vt 0.562548 0.442899
vt 0.463505 0.536898
vt 0.447193 0.370988
vt 0.127332 0.993741
vt 0.193936 0.856213
vt 0.253651 1.000000
vt 0.000000 0.692800
vt 0.119092 0.679326
vt 0.047749 0.856214
vt 0.919342 0.153584
vt 0.870537 0.000000
vt 1.000000 0.082506
vt 0.670791 0.165900
vt 0.724443 0.007240
vt 0.789459 0.146536
vt 0.331147 0.625762
vt 0.248707 0.692800
vt 0.203892 0.536898
vt 0.057705 0.536898
vt 0.324993 0.823110
vt 0.601695 0.536898
vt 0.335396 0.434360
vt 0.344595 0.268450
vt 0.998936 0.280037
vt 0.000001 0.165907
vt 0.108244 0.093998
vt 0.207286 0.000000
vt 0.017115 1.000000
vt 0.856497 0.997247
vt 0.730098 0.997247
vt 0.670791 0.370986
vt 0.069096 0.536898
vt 0.348262 0.536898
vt 0.458480 0.543157
vt 0.584798 0.536899
vt 0.207286 0.536898
vt 0.937850 0.544137
vt 0.791756 0.536898
vt 0.388852 1.000000
vn -0.102400 0.943500 -0.315100
vn -0.700200 0.661700 -0.268000
vn 0.268000 0.943500 -0.194700
vn 0.268000 0.943500 0.194700
vn -0.102400 0.943500 0.315100
vn -0.905000 0.330400 -0.268000
vn -0.024700 0.330400 -0.943500
vn 0.889700 0.330400 -0.315100
vn 0.574600 0.330400 0.748800
vn -0.534600 0.330400 0.777900
vn -0.802600 0.125600 -0.583100
vn 0.306600 0.125600 -0.943500
vn 0.992100 0.125600 0.000000
vn 0.306600 0.125600 0.943500
vn -0.802600 0.125600 0.583100
vn -0.408900 -0.661700 -0.628400
vn 0.471300 -0.661700 -0.583100
vn 0.700200 -0.661700 0.268000
vn -0.038500 -0.661700 0.748800
vn -0.724000 -0.661700 0.194700
vn -0.268000 -0.943500 0.194700
vn -0.491100 -0.794700 0.356800
vn -0.408900 -0.661700 0.628400
vn 0.102400 -0.943500 0.315100
vn 0.187600 -0.794700 0.577300
vn 0.471300 -0.661700 0.583100
vn 0.331300 -0.943500 0.000000
vn 0.607100 -0.794700 0.000000
vn 0.700200 -0.661700 -0.268000
vn 0.102400 -0.943500 -0.315100
vn 0.187600 -0.794700 -0.577300
vn -0.038500 -0.661700 -0.748800
vn -0.268000 -0.943500 -0.194700
vn -0.491100 -0.794700 -0.356800
vn -0.724000 -0.661700 -0.194700
vn -0.889700 -0.330400 0.315100
vn -0.794700 -0.187600 0.577300
vn -0.574600 -0.330400 0.748800
vn 0.024700 -0.330400 0.943500
vn 0.303500 -0.187600 0.934200
vn 0.534600 -0.330400 0.777900
vn 0.905000 -0.330400 0.268000
vn 0.982200 -0.187600 0.000000
vn 0.905000 -0.330400 -0.268000
vn 0.534600 -0.330400 -0.777900
vn 0.303500 -0.187600 -0.934200
vn 0.024700 -0.330400 -0.943500
vn -0.574600 -0.330400 -0.748800
vn -0.794700 -0.187600 -0.577300
vn -0.889700 -0.330400 -0.315100
vn -0.306600 -0.125600 0.943500
vn -0.303500 0.187600 0.934200
vn -0.024700 0.330400 0.943500
vn 0.802600 -0.125600 0.583100
vn 0.794700 0.187600 0.577300
vn 0.889700 0.330400 0.315100
vn 0.802600 -0.125600 -0.583100
vn 0.794700 0.187600 -0.577300
vn 0.574600 0.330400 -0.748800
vn -0.306600 -0.125600 -0.943500
vn -0.303500 0.187600 -0.934200
vn -0.534600 0.330400 -0.777900
vn -0.992100 -0.125600 0.000000
vn -0.982200 0.187600 0.000000
vn -0.905000 0.330400 0.268000
vn -0.471300 0.661700 0.583100
vn -0.187600 0.794700 0.577300
vn 0.038500 0.661700 0.748800
vn 0.408900 0.661700 0.628400
vn 0.491100 0.794700 0.356800
vn 0.724000 0.661700 0.194700
vn 0.724000 0.661700 -0.194700
vn 0.491100 0.794700 -0.356800
vn 0.408900 0.661700 -0.628400
vn -0.700200 0.661700 0.268000
vn -0.607100 0.794700 0.000000
vn -0.331300 0.943500 0.000000
vn 0.038500 0.661700 -0.748800
vn -0.187600 0.794700 -0.577300
vn -0.471300 0.661700 -0.583100
s off
f 1/1/1 13/2/1 14/3/1
f 2/4/2 16/5/2 14/3/2
f 1/1/3 18/6/3 13/2/3
f 1/1/4 20/7/4 18/6/4
f 1/1/5 17/8/5 20/7/5
f 2/9/6 23/10/6 16/11/6
f 3/12/7 25/13/7 15/14/7
f 4/15/8 27/16/8 19/17/8
f 5/18/9 29/19/9 21/20/9
f 6/21/10 31/22/10 22/23/10
f 2/9/11 26/24/11 23/10/11
f 3/12/12 28/25/12 25/13/12
f 4/26/13 30/27/13 27/28/13
f 5/18/14 32/29/14 29/19/14
f 6/21/15 24/30/15 31/22/15
f 7/31/16 38/32/16 33/33/16
f 8/34/17 40/35/17 34/36/17
f 9/37/18 41/38/18 35/39/18
f 10/40/19 42/41/19 36/42/19
f 11/43/20 39/44/20 37/45/20
f 39/46/21 12/47/21 42/48/21
f 39/44/22 42/41/22 37/45/22
f 37/45/23 42/41/23 10/40/23
f 42/48/24 12/47/24 41/38/24
f 42/48/25 41/38/25 36/49/25
f 36/49/26 41/38/26 9/37/26
f 41/38/27 12/47/27 40/35/27
f 41/38/28 40/35/28 35/39/28
f 35/39/29 40/35/29 8/34/29
f 40/35/30 12/47/30 38/50/30
f 40/35/31 38/50/31 34/36/31
f 34/51/32 38/32/32 7/31/32
f 38/50/33 12/47/33 39/46/33
f 38/32/34 39/52/34 33/33/34
f 33/33/35 39/52/35 11/53/35
f 24/30/36 11/43/36 37/45/36
f 24/30/37 37/45/37 31/22/37
f 31/22/38 37/45/38 10/40/38
f 32/54/39 10/40/39 36/42/39
f 32/29/40 36/55/40 29/19/40
f 29/19/41 36/55/41 9/56/41
f 30/27/42 9/56/42 35/57/42
f 30/27/43 35/57/43 27/28/43
f 27/58/44 35/39/44 8/34/44
f 28/25/45 8/59/45 34/60/45
f 28/25/46 34/60/46 25/13/46
f 25/61/47 34/51/47 7/31/47
f 26/24/48 7/31/48 33/33/48
f 26/24/49 33/33/49 23/10/49
f 23/10/50 33/33/50 11/53/50
f 31/22/51 10/40/51 32/54/51
f 31/22/52 32/54/52 22/23/52
f 22/62/53 32/29/53 5/18/53
f 29/19/54 9/56/54 30/27/54
f 29/19/55 30/27/55 21/20/55
f 21/20/56 30/27/56 4/26/56
f 27/16/57 8/59/57 28/25/57
f 27/16/58 28/25/58 19/17/58
f 19/17/59 28/25/59 3/12/59
f 25/61/60 7/31/60 26/24/60
f 25/61/61 26/24/61 15/43/61
f 15/43/62 26/24/62 2/9/62
f 23/10/63 11/53/63 24/28/63
f 23/10/64 24/28/64 16/11/64
f 16/5/65 24/63/65 6/64/65
f 17/8/66 6/64/66 22/65/66
f 17/8/67 22/65/67 20/7/67
f 20/66/68 22/62/68 5/18/68
f 20/66/69 5/18/69 21/20/69
f 20/66/70 21/20/70 18/52/70
f 18/52/71 21/20/71 4/26/71
f 18/67/72 4/15/72 19/17/72
f 18/67/73 19/17/73 13/68/73
f 13/68/74 19/17/74 3/12/74
f 16/5/75 6/64/75 17/8/75
f 16/5/76 17/8/76 14/3/76
f 14/3/77 17/8/77 1/1/77
f 13/68/78 3/12/78 15/14/78
f 13/2/79 15/69/79 14/3/79
f 14/3/80 15/69/80 2/4/80
