# Blender v2.74 (sub 0) OBJ File: ''
# www.blender.org
mtllib sphere1.mtl
o Icosphere_Icosphere.001
v 0.007489 -0.835993 -0.027232
v 0.731096 -0.283212 0.498493
v -0.268899 -0.283213 0.823417
v -0.886938 -0.283209 -0.027232
v -0.268899 -0.283213 -0.877882
v 0.731096 -0.283212 -0.552958
v 0.283877 0.611227 0.823417
v -0.716119 0.611227 0.498493
v -0.716119 0.611227 -0.552958
v 0.283877 0.611227 -0.877882
v 0.901915 0.611223 -0.027232
v 0.007489 1.164007 -0.027232
v -0.225333 -0.493512 0.689331
v -0.154967 -0.686647 0.472763
v -0.070118 -0.803943 0.211620
v 0.210669 -0.803943 0.120385
v 0.432811 -0.686647 0.281779
v 0.617035 -0.493512 0.415624
v 0.539429 -0.338295 0.654480
v 0.270357 -0.361731 0.781779
v -0.022151 -0.338295 0.836952
v 0.820218 -0.338294 -0.322470
v 0.858136 -0.361729 -0.027232
v 0.820218 -0.338294 0.268005
v 0.210669 -0.803943 -0.174850
v 0.432811 -0.686647 -0.336244
v 0.617035 -0.493512 -0.470089
v -0.745953 -0.493508 -0.027232
v -0.518241 -0.686645 -0.027232
v -0.243658 -0.803942 -0.027232
v -0.476483 -0.338295 0.689332
v -0.680701 -0.361729 0.472764
v -0.823562 -0.338292 0.211621
v -0.225333 -0.493512 -0.743796
v -0.154967 -0.686647 -0.527228
v -0.070118 -0.803943 -0.266085
v -0.823562 -0.338292 -0.266086
v -0.680701 -0.361729 -0.527229
v -0.476483 -0.338295 -0.743797
v -0.022151 -0.338295 -0.891417
v 0.270357 -0.361731 -0.836244
v 0.539429 -0.338295 -0.708945
v 0.964114 0.415156 0.120386
v 0.958546 0.164007 0.281780
v 0.868186 -0.087144 0.415625
v 0.868186 -0.087144 -0.470090
v 0.958546 0.164007 -0.336245
v 0.964114 0.415156 -0.174851
v 0.162704 0.415159 0.928190
v 0.007489 0.164007 0.972767
v -0.147727 -0.087144 0.928190
v 0.694647 -0.087145 0.654483
v 0.595274 0.164007 0.781784
v 0.443495 0.415159 0.836955
v -0.853209 0.415158 0.415625
v -0.943569 0.164007 0.281780
v -0.949137 -0.087142 0.120386
v -0.428518 -0.087145 0.836955
v -0.580297 0.164007 0.781784
v -0.679670 0.415159 0.654483
v -0.679670 0.415159 -0.708948
v -0.580297 0.164007 -0.836249
v -0.428518 -0.087145 -0.891420
v -0.949137 -0.087142 -0.174851
v -0.943569 0.164007 -0.336245
v -0.853209 0.415158 -0.470090
v 0.443495 0.415159 -0.891420
v 0.595274 0.164007 -0.836249
v 0.694647 -0.087145 -0.708948
v -0.147727 -0.087144 -0.982655
v 0.007489 0.164007 -1.027232
v 0.162704 0.415159 -0.982655
v 0.838539 0.666306 0.211621
v 0.695678 0.689743 0.472764
v 0.491460 0.666309 0.689332
v 0.037128 0.666309 0.836952
v -0.255380 0.689745 0.781779
v -0.524452 0.666309 0.654480
v -0.805241 0.666308 0.268005
v -0.843159 0.689743 -0.027232
v -0.805241 0.666308 -0.322470
v -0.524452 0.666309 -0.708945
v -0.255380 0.689745 -0.836244
v 0.037128 0.666309 -0.891417
v 0.491460 0.666309 -0.743797
v 0.695678 0.689743 -0.527229
v 0.838539 0.666306 -0.266086
v 0.085095 1.131957 0.211620
v 0.169944 1.014661 0.472763
v 0.240310 0.821526 0.689331
v 0.760930 0.821522 -0.027232
v 0.533218 1.014659 -0.027232
v 0.258636 1.131956 -0.027232
v -0.195692 1.131957 0.120385
v -0.417834 1.014661 0.281779
v -0.602058 0.821526 0.415624
v -0.195692 1.131957 -0.174850
v -0.417834 1.014661 -0.336244
v -0.602058 0.821526 -0.470089
v 0.085095 1.131957 -0.266085
v 0.169944 1.014661 -0.527228
v 0.240310 0.821526 -0.743796
v 0.369289 1.058436 -0.290095
v 0.645682 0.887617 -0.290097
v 0.454698 0.887619 -0.552961
v -0.130709 1.058437 -0.452552
v -0.045301 0.887619 -0.715417
v -0.354315 0.887619 -0.615011
v -0.439721 1.058436 -0.027232
v -0.663328 0.887618 -0.189689
v -0.663328 0.887618 0.135225
v -0.130709 1.058437 0.398087
v -0.354315 0.887619 0.560546
v -0.045301 0.887619 0.660952
v 0.369289 1.058436 0.235631
v 0.454698 0.887619 0.498496
v 0.645682 0.887617 0.235632
v 0.869293 0.440403 -0.452554
v 0.816508 0.164007 -0.615015
v 0.678309 0.440404 -0.715422
v -0.130710 0.440404 -0.978288
v -0.301528 0.164007 -0.978289
v -0.439726 0.440404 -0.877881
v -0.939725 0.440403 -0.189690
v -0.992511 0.164008 -0.027232
v -0.939724 0.440404 0.135225
v -0.439727 0.440404 0.823416
v -0.301529 0.164006 0.923824
v -0.130711 0.440404 0.923823
v 0.678309 0.440403 0.660957
v 0.816507 0.164005 0.560551
v 0.869293 0.440401 0.398091
v 0.316506 0.164007 -0.978289
v 0.454704 -0.112391 -0.877881
v 0.145688 -0.112390 -0.978287
v -0.801530 0.164007 -0.615016
v -0.663330 -0.112390 -0.715423
v -0.854315 -0.112389 -0.452556
v -0.801530 0.164007 0.560551
v -0.854315 -0.112389 0.398092
v -0.663330 -0.112390 0.660958
v 0.316506 0.164007 0.923824
v 0.145688 -0.112390 0.923822
v 0.454704 -0.112391 0.823416
v 1.007489 0.164007 -0.027232
v 0.954702 -0.112389 0.135225
v 0.954702 -0.112389 -0.189690
v 0.369292 -0.559605 -0.615012
v 0.145685 -0.730422 -0.452554
v 0.060278 -0.559604 -0.715419
v -0.439722 -0.559605 -0.552960
v -0.354313 -0.730422 -0.290095
v -0.630706 -0.559602 -0.290095
v -0.630706 -0.559602 0.235631
v -0.354313 -0.730421 0.235632
v -0.439722 -0.559603 0.498496
v 0.678306 -0.559604 -0.189689
v 0.678306 -0.559603 0.135225
v 0.454700 -0.730421 -0.027232
v 0.060279 -0.559605 0.660953
v 0.145687 -0.730422 0.398088
v 0.369294 -0.559604 0.560547
vt 1.477097 0.000000
vt 1.191668 0.080807
vt 0.991667 0.080807
vt 0.191668 0.352414
vt 0.191668 0.271606
vt 0.236210 0.332487
vt 0.791666 0.080808
vt 0.477097 0.000000
vt 0.591666 0.080807
vt 0.391666 0.080807
vt 0.216035 0.419191
vt 0.991667 0.352414
vt 1.036210 0.332487
vt 1.016035 0.419191
vt 0.791667 0.352416
vt 0.836209 0.332488
vt 0.816034 0.419191
vt 0.591666 0.352414
vt 0.636209 0.332487
vt 0.616034 0.419190
vt 0.391666 0.352414
vt 0.436208 0.332487
vt 0.416034 0.419191
vt 0.167300 0.419191
vt 0.967299 0.419191
vt 0.767299 0.419191
vt 0.567299 0.419191
vt 0.367298 0.419191
vt 0.091666 0.647586
vt 0.136209 0.667513
vt 0.091666 0.728394
vt 0.891666 0.647586
vt 0.936208 0.667513
vt 0.891666 0.728394
vt 0.691668 0.647586
vt 0.736210 0.667513
vt 0.691668 0.728394
vt 0.491667 0.647586
vt 0.536210 0.667513
vt 0.491667 0.728394
vt 0.291667 0.647584
vt 0.336209 0.667512
vt 0.291667 0.728392
vt 1.291666 0.919192
vt 0.491667 0.919193
vt 0.977097 1.000000
vt 0.291667 0.823792
vt 0.391666 0.852418
vt 0.291666 0.919192
vt 0.353850 0.757519
vt 0.491667 0.823794
vt 0.429483 0.757519
vt 0.391666 0.676210
vt 0.447124 0.667513
vt 0.691668 0.919193
vt 0.591668 0.852418
vt 0.553851 0.757520
vt 0.691668 0.823794
vt 0.629484 0.757519
vt 0.591668 0.676211
vt 0.647125 0.667513
vt 0.891666 0.919193
vt 0.791667 0.852418
vt 0.753851 0.757519
vt 0.891666 0.823794
vt 0.829482 0.757519
vt 0.791667 0.676210
vt 0.847123 0.667513
vt 1.091666 0.919193
vt 0.991666 0.852418
vt 0.953850 0.757520
vt 1.091666 0.823794
vt 1.029482 0.757520
vt 0.029482 0.757520
vt 0.091666 0.823794
vt 0.991666 0.676211
vt 1.047123 0.667513
vt 0.047123 0.667513
vt 0.191667 0.852418
vt 0.091666 0.919193
vt 0.153850 0.757519
vt 0.229483 0.757519
vt 0.191667 0.676210
vt 0.247124 0.667512
vt 0.316034 0.580809
vt 0.341666 0.500000
vt 0.364632 0.589140
vt 0.391666 0.500000
vt 0.418701 0.589141
vt 0.441667 0.500000
vt 0.467299 0.580809
vt 0.516035 0.580809
vt 0.541667 0.500000
vt 0.564633 0.589140
vt 0.591667 0.500000
vt 0.618701 0.589140
vt 0.641667 0.500000
vt 0.667300 0.580809
vt 0.716035 0.580809
vt 0.741667 0.500000
vt 0.764633 0.589140
vt 0.791667 0.500000
vt 0.818700 0.589140
vt 0.841666 0.500000
vt 0.867298 0.580809
vt 0.916034 0.580809
vt 0.941666 0.500000
vt 0.964632 0.589141
vt 0.991667 0.500000
vt 1.018700 0.589141
vt 1.041667 0.500000
vt 0.041667 0.500000
vt 0.067299 0.580809
vt 0.018700 0.589141
vt 0.116034 0.580810
vt 0.141667 0.500000
vt 0.164633 0.589140
vt 0.191667 0.500000
vt 0.218701 0.589140
vt 0.241667 0.500000
vt 0.267299 0.580809
vt 0.491667 0.500000
vt 0.464632 0.410859
vt 0.518700 0.410859
vt 0.491666 0.323789
vt 0.547123 0.332487
vt 0.691667 0.500000
vt 0.664632 0.410859
vt 0.718701 0.410860
vt 0.691667 0.323790
vt 0.747124 0.332488
vt 0.891666 0.500000
vt 0.864632 0.410860
vt 0.918701 0.410860
vt 0.891666 0.323790
vt 0.947124 0.332487
vt 0.091667 0.500000
vt 0.016035 0.419191
vt 0.064633 0.410860
vt 0.118701 0.410860
vt 0.036210 0.332487
vt 0.091668 0.323790
vt 0.147125 0.332487
vt 0.291667 0.500000
vt 0.264633 0.410860
vt 0.318700 0.410860
vt 0.291667 0.323790
vt 0.347123 0.332487
vt 0.391666 0.271606
vt 0.391666 0.176206
vt 0.453850 0.242481
vt 0.491666 0.147582
vt 0.529482 0.242481
vt 0.591666 0.176206
vt 0.591666 0.271606
vt 0.653850 0.242481
vt 0.691667 0.147582
vt 0.729483 0.242482
vt 0.791667 0.176208
vt 0.791667 0.271608
vt 0.853850 0.242482
vt 0.891667 0.147583
vt 0.929483 0.242481
vt 0.991667 0.176206
vt 0.991667 0.271606
vt 0.329482 0.242481
vt 0.253851 0.242482
vt 0.291667 0.147583
vt 0.191668 0.176206
vt 0.191668 0.080807
vt 1.053852 0.242481
vt 1.091668 0.147582
vt 0.053852 0.242481
vt 0.091668 0.147582
vt 0.129484 0.242481
vn 0.000000 -1.000000 0.000000
vn 0.210900 -0.965400 0.153200
vn -0.080600 -0.965400 0.248000
vn 0.723600 -0.447200 0.525700
vn 0.604200 -0.665000 0.439000
vn 0.815200 -0.503800 0.285700
vn -0.260800 -0.965400 0.000000
vn -0.080600 -0.965400 -0.248000
vn 0.210900 -0.965400 -0.153300
vn 0.865000 -0.243000 0.439000
vn -0.276400 -0.447200 0.850600
vn -0.019800 -0.503800 0.863600
vn -0.150200 -0.243000 0.958300
vn -0.894400 -0.447200 0.000000
vn -0.827400 -0.503800 0.248000
vn -0.957800 -0.243000 0.153300
vn -0.276400 -0.447200 -0.850600
vn -0.491500 -0.503800 -0.710300
vn -0.441700 -0.243000 -0.863600
vn 0.723600 -0.447200 -0.525700
vn 0.523600 -0.503800 -0.687000
vn 0.684800 -0.243000 -0.687000
vn 0.684800 -0.243000 0.687000
vn -0.441700 -0.243000 0.863600
vn -0.957800 -0.243000 -0.153300
vn -0.150200 -0.243000 -0.958300
vn 0.865000 -0.243000 -0.439000
vn 0.276400 0.447200 0.850600
vn 0.491500 0.503800 0.710300
vn 0.230800 0.665000 0.710300
vn -0.723600 0.447200 0.525700
vn -0.523600 0.503800 0.687000
vn -0.604200 0.665000 0.439000
vn -0.723600 0.447200 -0.525700
vn -0.815200 0.503800 -0.285700
vn -0.604200 0.665000 -0.439000
vn 0.276400 0.447200 -0.850600
vn 0.019800 0.503800 -0.863600
vn 0.230800 0.665000 -0.710300
vn 0.894400 0.447200 0.000000
vn 0.827400 0.503800 -0.248000
vn 0.746800 0.665000 0.000000
vn 0.260800 0.965400 0.000000
vn 0.080600 0.965400 -0.248000
vn 0.000000 1.000000 0.000000
vn 0.525700 0.850600 0.000000
vn 0.368200 0.890400 -0.267500
vn 0.631700 0.727500 -0.267500
vn 0.162500 0.850600 -0.500000
vn 0.449600 0.727500 -0.518100
vn 0.688200 0.525700 -0.500000
vn 0.491500 0.503800 -0.710300
vn -0.210900 0.965400 -0.153300
vn -0.140600 0.890400 -0.432800
vn -0.059200 0.727500 -0.683500
vn -0.425300 0.850600 -0.309000
vn -0.353800 0.727500 -0.587700
vn -0.262900 0.525700 -0.809000
vn -0.523600 0.503800 -0.687000
vn -0.210900 0.965400 0.153300
vn -0.455100 0.890400 0.000000
vn -0.668300 0.727500 -0.154900
vn -0.425300 0.850600 0.309000
vn -0.668300 0.727500 0.154900
vn -0.850600 0.525700 0.000000
vn -0.815200 0.503800 0.285700
vn 0.080600 0.965400 0.248000
vn -0.140600 0.890400 0.432800
vn -0.353800 0.727500 0.587700
vn 0.162500 0.850600 0.500000
vn -0.059200 0.727500 0.683500
vn -0.262900 0.525700 0.809000
vn 0.019800 0.503800 0.863600
vn 0.368200 0.890400 0.267500
vn 0.449600 0.727500 0.518100
vn 0.631700 0.727500 0.267500
vn 0.688200 0.525700 0.500000
vn 0.827400 0.503800 0.248000
vn 0.957800 0.243000 -0.153300
vn 0.951000 0.000000 -0.309000
vn 0.859300 0.272400 -0.432800
vn 0.809000 0.008900 -0.587800
vn 0.677200 0.272400 -0.683500
vn 0.587800 0.000000 -0.809000
vn 0.441700 0.243000 -0.863600
vn 0.150200 0.243000 -0.958300
vn 0.000000 0.000000 -1.000000
vn -0.146100 0.272400 -0.951000
vn -0.309000 0.008900 -0.951000
vn -0.440700 0.272400 -0.855300
vn -0.587800 0.000000 -0.809000
vn -0.684800 0.243000 -0.687000
vn -0.865000 0.243000 -0.439000
vn -0.951000 0.000000 -0.309000
vn -0.949600 0.272400 -0.154900
vn -0.999900 0.008900 0.000000
vn -0.949600 0.272400 0.154900
vn -0.951000 0.000000 0.309000
vn -0.865000 0.243000 0.439000
vn -0.684800 0.243000 0.687000
vn -0.587800 0.000000 0.809000
vn -0.440700 0.272400 0.855300
vn -0.309000 0.008900 0.951000
vn -0.146100 0.272400 0.951000
vn 0.000000 0.000000 1.000000
vn 0.150200 0.243000 0.958300
vn 0.441700 0.243000 0.863600
vn 0.587800 0.000000 0.809000
vn 0.677200 0.272400 0.683500
vn 0.809000 0.008900 0.587800
vn 0.859300 0.272400 0.432800
vn 0.951000 0.000000 0.309000
vn 0.957800 0.243000 0.153300
vn 0.309000 -0.008900 -0.951000
vn 0.440700 -0.272400 -0.855300
vn 0.146100 -0.272400 -0.951000
vn 0.262900 -0.525700 -0.809000
vn -0.019800 -0.503800 -0.863600
vn -0.809000 -0.008900 -0.587800
vn -0.677200 -0.272400 -0.683500
vn -0.859300 -0.272400 -0.432800
vn -0.688200 -0.525700 -0.500000
vn -0.827400 -0.503800 -0.248000
vn -0.809000 -0.008900 0.587800
vn -0.859300 -0.272400 0.432800
vn -0.677200 -0.272400 0.683500
vn -0.688200 -0.525700 0.500000
vn -0.491500 -0.503800 0.710300
vn 0.309000 -0.008900 0.951000
vn 0.146100 -0.272400 0.951000
vn 0.440700 -0.272400 0.855300
vn 0.262900 -0.525700 0.809000
vn 0.523600 -0.503800 0.687000
vn 0.999900 -0.008900 0.000000
vn 0.949600 -0.272400 0.154900
vn 0.949600 -0.272400 -0.154900
vn 0.850600 -0.525700 0.000000
vn 0.815200 -0.503800 -0.285700
vn 0.604200 -0.665000 -0.439000
vn 0.425300 -0.850600 -0.309000
vn 0.353800 -0.727500 -0.587800
vn 0.140600 -0.890400 -0.432800
vn 0.059200 -0.727500 -0.683500
vn -0.162500 -0.850600 -0.500000
vn -0.230800 -0.665000 -0.710300
vn -0.449600 -0.727500 -0.518100
vn -0.368200 -0.890400 -0.267500
vn -0.631700 -0.727500 -0.267500
vn -0.525700 -0.850600 0.000000
vn -0.746800 -0.665000 0.000000
vn -0.631700 -0.727500 0.267500
vn -0.368200 -0.890400 0.267500
vn -0.449600 -0.727500 0.518100
vn -0.162500 -0.850600 0.500000
vn -0.230800 -0.665000 0.710300
vn 0.668300 -0.727500 -0.154900
vn 0.668300 -0.727500 0.154900
vn 0.455100 -0.890400 0.000000
vn 0.425300 -0.850600 0.309000
vn 0.059200 -0.727500 0.683500
vn 0.140600 -0.890400 0.432800
vn 0.353800 -0.727500 0.587800
usemtl None
s 1
f 1/1/1 16/2/2 15/3/3
f 2/4/4 18/5/5 24/6/6
f 1/1/1 15/3/3 30/7/7
f 1/8/1 30/7/7 36/9/8
f 1/8/1 36/9/8 25/10/9
f 2/4/4 24/6/6 45/11/10
f 3/12/11 21/13/12 51/14/13
f 4/15/14 33/16/15 57/17/16
f 5/18/17 39/19/18 63/20/19
f 6/21/20 42/22/21 69/23/22
f 2/4/4 45/11/10 52/24/23
f 3/12/11 51/14/13 58/25/24
f 4/15/14 57/17/16 64/26/25
f 5/18/17 63/20/19 70/27/26
f 6/21/20 69/23/22 46/28/27
f 7/29/28 75/30/29 90/31/30
f 8/32/31 78/33/32 96/34/33
f 9/35/34 81/36/35 99/37/36
f 10/38/37 84/39/38 102/40/39
f 11/41/40 87/42/41 91/43/42
f 93/44/43 100/45/44 12/46/45
f 92/47/46 103/48/47 93/49/43
f 91/43/42 104/50/48 92/47/46
f 93/49/43 103/48/47 100/45/44
f 103/48/47 101/51/49 100/45/44
f 92/47/46 104/50/48 103/48/47
f 104/50/48 105/52/50 103/48/47
f 103/48/47 105/52/50 101/51/49
f 105/52/50 102/40/39 101/51/49
f 91/43/42 87/42/41 104/50/48
f 87/42/41 86/53/51 104/50/48
f 104/50/48 86/53/51 105/52/50
f 86/53/51 85/54/52 105/52/50
f 105/52/50 85/54/52 102/40/39
f 85/54/52 10/38/37 102/40/39
f 100/45/44 97/55/53 12/46/45
f 101/51/49 106/56/54 100/45/44
f 102/40/39 107/57/55 101/51/49
f 100/45/44 106/56/54 97/55/53
f 106/56/54 98/58/56 97/55/53
f 101/51/49 107/57/55 106/56/54
f 107/57/55 108/59/57 106/56/54
f 106/56/54 108/59/57 98/58/56
f 108/59/57 99/37/36 98/58/56
f 102/40/39 84/39/38 107/57/55
f 84/39/38 83/60/58 107/57/55
f 107/57/55 83/60/58 108/59/57
f 83/60/58 82/61/59 108/59/57
f 108/59/57 82/61/59 99/37/36
f 82/61/59 9/35/34 99/37/36
f 97/55/53 94/62/60 12/46/45
f 98/58/56 109/63/61 97/55/53
f 99/37/36 110/64/62 98/58/56
f 97/55/53 109/63/61 94/62/60
f 109/63/61 95/65/63 94/62/60
f 98/58/56 110/64/62 109/63/61
f 110/64/62 111/66/64 109/63/61
f 109/63/61 111/66/64 95/65/63
f 111/66/64 96/34/33 95/65/63
f 99/37/36 81/36/35 110/64/62
f 81/36/35 80/67/65 110/64/62
f 110/64/62 80/67/65 111/66/64
f 80/67/65 79/68/66 111/66/64
f 111/66/64 79/68/66 96/34/33
f 79/68/66 8/32/31 96/34/33
f 94/62/60 88/69/67 12/46/45
f 95/65/63 112/70/68 94/62/60
f 96/34/33 113/71/69 95/65/63
f 94/62/60 112/70/68 88/69/67
f 112/70/68 89/72/70 88/69/67
f 95/65/63 113/71/69 112/70/68
f 113/71/69 114/73/71 112/70/68
f 112/70/68 114/73/71 89/72/70
f 114/74/71 90/31/30 89/75/70
f 96/34/33 78/33/32 113/71/69
f 78/33/32 77/76/72 113/71/69
f 113/71/69 77/76/72 114/73/71
f 77/76/72 76/77/73 114/73/71
f 114/74/71 76/78/73 90/31/30
f 76/78/73 7/29/28 90/31/30
f 88/69/67 93/44/43 12/46/45
f 89/75/70 115/79/74 88/80/67
f 90/31/30 116/81/75 89/75/70
f 88/80/67 115/79/74 93/49/43
f 115/79/74 92/47/46 93/49/43
f 89/75/70 116/81/75 115/79/74
f 116/81/75 117/82/76 115/79/74
f 115/79/74 117/82/76 92/47/46
f 117/82/76 91/43/42 92/47/46
f 90/31/30 75/30/29 116/81/75
f 75/30/29 74/83/77 116/81/75
f 116/81/75 74/83/77 117/82/76
f 74/83/77 73/84/78 117/82/76
f 117/82/76 73/84/78 91/43/42
f 73/84/78 11/41/40 91/43/42
f 48/85/79 87/42/41 11/41/40
f 47/86/80 118/87/81 48/85/79
f 46/28/27 119/88/82 47/86/80
f 48/85/79 118/87/81 87/42/41
f 118/87/81 86/53/51 87/42/41
f 47/86/80 119/88/82 118/87/81
f 119/88/82 120/89/83 118/87/81
f 118/87/81 120/89/83 86/53/51
f 120/89/83 85/54/52 86/53/51
f 46/28/27 69/23/22 119/88/82
f 69/23/22 68/90/84 119/88/82
f 119/88/82 68/90/84 120/89/83
f 68/90/84 67/91/85 120/89/83
f 120/89/83 67/91/85 85/54/52
f 67/91/85 10/38/37 85/54/52
f 72/92/86 84/39/38 10/38/37
f 71/93/87 121/94/88 72/92/86
f 70/27/26 122/95/89 71/93/87
f 72/92/86 121/94/88 84/39/38
f 121/94/88 83/60/58 84/39/38
f 71/93/87 122/95/89 121/94/88
f 122/95/89 123/96/90 121/94/88
f 121/94/88 123/96/90 83/60/58
f 123/96/90 82/61/59 83/60/58
f 70/27/26 63/20/19 122/95/89
f 63/20/19 62/97/91 122/95/89
f 122/95/89 62/97/91 123/96/90
f 62/97/91 61/98/92 123/96/90
f 123/96/90 61/98/92 82/61/59
f 61/98/92 9/35/34 82/61/59
f 66/99/93 81/36/35 9/35/34
f 65/100/94 124/101/95 66/99/93
f 64/26/25 125/102/96 65/100/94
f 66/99/93 124/101/95 81/36/35
f 124/101/95 80/67/65 81/36/35
f 65/100/94 125/102/96 124/101/95
f 125/102/96 126/103/97 124/101/95
f 124/101/95 126/103/97 80/67/65
f 126/103/97 79/68/66 80/67/65
f 64/26/25 57/17/16 125/102/96
f 57/17/16 56/104/98 125/102/96
f 125/102/96 56/104/98 126/103/97
f 56/104/98 55/105/99 126/103/97
f 126/103/97 55/105/99 79/68/66
f 55/105/99 8/32/31 79/68/66
f 60/106/100 78/33/32 8/32/31
f 59/107/101 127/108/102 60/106/100
f 58/25/24 128/109/103 59/107/101
f 60/106/100 127/108/102 78/33/32
f 127/108/102 77/76/72 78/33/32
f 59/107/101 128/109/103 127/108/102
f 128/109/103 129/110/104 127/108/102
f 127/108/102 129/110/104 77/76/72
f 129/110/104 76/77/73 77/76/72
f 58/25/24 51/14/13 128/109/103
f 51/14/13 50/111/105 128/109/103
f 128/109/103 50/111/105 129/110/104
f 50/112/105 49/113/106 129/114/104
f 129/114/104 49/113/106 76/78/73
f 49/113/106 7/29/28 76/78/73
f 54/115/107 75/30/29 7/29/28
f 53/116/108 130/117/109 54/115/107
f 52/24/23 131/118/110 53/116/108
f 54/115/107 130/117/109 75/30/29
f 130/117/109 74/83/77 75/30/29
f 53/116/108 131/118/110 130/117/109
f 131/118/110 132/119/111 130/117/109
f 130/117/109 132/119/111 74/83/77
f 132/119/111 73/84/78 74/83/77
f 52/24/23 45/11/10 131/118/110
f 45/11/10 44/120/112 131/118/110
f 131/118/110 44/120/112 132/119/111
f 44/120/112 43/121/113 132/119/111
f 132/119/111 43/121/113 73/84/78
f 43/121/113 11/41/40 73/84/78
f 67/91/85 72/92/86 10/38/37
f 68/90/84 133/122/114 67/91/85
f 69/23/22 134/123/115 68/90/84
f 67/91/85 133/122/114 72/92/86
f 133/122/114 71/93/87 72/92/86
f 68/90/84 134/123/115 133/122/114
f 134/123/115 135/124/116 133/122/114
f 133/122/114 135/124/116 71/93/87
f 135/124/116 70/27/26 71/93/87
f 69/23/22 42/22/21 134/123/115
f 42/22/21 41/125/117 134/123/115
f 134/123/115 41/125/117 135/124/116
f 41/125/117 40/126/118 135/124/116
f 135/124/116 40/126/118 70/27/26
f 40/126/118 5/18/17 70/27/26
f 61/98/92 66/99/93 9/35/34
f 62/97/91 136/127/119 61/98/92
f 63/20/19 137/128/120 62/97/91
f 61/98/92 136/127/119 66/99/93
f 136/127/119 65/100/94 66/99/93
f 62/97/91 137/128/120 136/127/119
f 137/128/120 138/129/121 136/127/119
f 136/127/119 138/129/121 65/100/94
f 138/129/121 64/26/25 65/100/94
f 63/20/19 39/19/18 137/128/120
f 39/19/18 38/130/122 137/128/120
f 137/128/120 38/130/122 138/129/121
f 38/130/122 37/131/123 138/129/121
f 138/129/121 37/131/123 64/26/25
f 37/131/123 4/15/14 64/26/25
f 55/105/99 60/106/100 8/32/31
f 56/104/98 139/132/124 55/105/99
f 57/17/16 140/133/125 56/104/98
f 55/105/99 139/132/124 60/106/100
f 139/132/124 59/107/101 60/106/100
f 56/104/98 140/133/125 139/132/124
f 140/133/125 141/134/126 139/132/124
f 139/132/124 141/134/126 59/107/101
f 141/134/126 58/25/24 59/107/101
f 57/17/16 33/16/15 140/133/125
f 33/16/15 32/135/127 140/133/125
f 140/133/125 32/135/127 141/134/126
f 32/135/127 31/136/128 141/134/126
f 141/134/126 31/136/128 58/25/24
f 31/136/128 3/12/11 58/25/24
f 49/113/106 54/115/107 7/29/28
f 50/112/105 142/137/129 49/113/106
f 51/138/13 143/139/130 50/112/105
f 49/113/106 142/137/129 54/115/107
f 142/137/129 53/116/108 54/115/107
f 50/112/105 143/139/130 142/137/129
f 143/139/130 144/140/131 142/137/129
f 142/137/129 144/140/131 53/116/108
f 144/140/131 52/24/23 53/116/108
f 51/138/13 21/141/12 143/139/130
f 21/141/12 20/142/132 143/139/130
f 143/139/130 20/142/132 144/140/131
f 20/142/132 19/143/133 144/140/131
f 144/140/131 19/143/133 52/24/23
f 19/143/133 2/4/4 52/24/23
f 43/121/113 48/85/79 11/41/40
f 44/120/112 145/144/134 43/121/113
f 45/11/10 146/145/135 44/120/112
f 43/121/113 145/144/134 48/85/79
f 145/144/134 47/86/80 48/85/79
f 44/120/112 146/145/135 145/144/134
f 146/145/135 147/146/136 145/144/134
f 145/144/134 147/146/136 47/86/80
f 147/146/136 46/28/27 47/86/80
f 45/11/10 24/6/6 146/145/135
f 24/6/6 23/147/137 146/145/135
f 146/145/135 23/147/137 147/146/136
f 23/147/137 22/148/138 147/146/136
f 147/146/136 22/148/138 46/28/27
f 22/148/138 6/21/20 46/28/27
f 27/149/139 42/22/21 6/21/20
f 26/150/140 148/151/141 27/149/139
f 25/10/9 149/152/142 26/150/140
f 27/149/139 148/151/141 42/22/21
f 148/151/141 41/125/117 42/22/21
f 26/150/140 149/152/142 148/151/141
f 149/152/142 150/153/143 148/151/141
f 148/151/141 150/153/143 41/125/117
f 150/153/143 40/126/118 41/125/117
f 25/10/9 36/9/8 149/152/142
f 36/9/8 35/154/144 149/152/142
f 149/152/142 35/154/144 150/153/143
f 35/154/144 34/155/145 150/153/143
f 150/153/143 34/155/145 40/126/118
f 34/155/145 5/18/17 40/126/118
f 34/155/145 39/19/18 5/18/17
f 35/154/144 151/156/146 34/155/145
f 36/9/8 152/157/147 35/154/144
f 34/155/145 151/156/146 39/19/18
f 151/156/146 38/130/122 39/19/18
f 35/154/144 152/157/147 151/156/146
f 152/157/147 153/158/148 151/156/146
f 151/156/146 153/158/148 38/130/122
f 153/158/148 37/131/123 38/130/122
f 36/9/8 30/7/7 152/157/147
f 30/7/7 29/159/149 152/157/147
f 152/157/147 29/159/149 153/158/148
f 29/159/149 28/160/150 153/158/148
f 153/158/148 28/160/150 37/131/123
f 28/160/150 4/15/14 37/131/123
f 28/160/150 33/16/15 4/15/14
f 29/159/149 154/161/151 28/160/150
f 30/7/7 155/162/152 29/159/149
f 28/160/150 154/161/151 33/16/15
f 154/161/151 32/135/127 33/16/15
f 29/159/149 155/162/152 154/161/151
f 155/162/152 156/163/153 154/161/151
f 154/161/151 156/163/153 32/135/127
f 156/163/153 31/136/128 32/135/127
f 30/7/7 15/3/3 155/162/152
f 15/3/3 14/164/154 155/162/152
f 155/162/152 14/164/154 156/163/153
f 14/164/154 13/165/155 156/163/153
f 156/163/153 13/165/155 31/136/128
f 13/165/155 3/12/11 31/136/128
f 22/148/138 27/149/139 6/21/20
f 23/147/137 157/166/156 22/148/138
f 24/6/6 158/167/157 23/147/137
f 22/148/138 157/166/156 27/149/139
f 157/166/156 26/150/140 27/149/139
f 23/147/137 158/167/157 157/166/156
f 158/167/157 159/168/158 157/166/156
f 157/166/156 159/168/158 26/150/140
f 159/168/158 25/10/9 26/150/140
f 24/6/6 18/5/5 158/167/157
f 18/5/5 17/169/159 158/167/157
f 158/167/157 17/169/159 159/168/158
f 17/169/159 16/170/2 159/168/158
f 159/168/158 16/170/2 25/10/9
f 16/170/2 1/8/1 25/10/9
f 13/165/155 21/13/12 3/12/11
f 14/164/154 160/171/160 13/165/155
f 15/3/3 161/172/161 14/164/154
f 13/165/155 160/171/160 21/13/12
f 160/173/160 20/142/132 21/141/12
f 14/164/154 161/172/161 160/171/160
f 161/174/161 162/175/162 160/173/160
f 160/173/160 162/175/162 20/142/132
f 162/175/162 19/143/133 20/142/132
f 15/3/3 16/2/2 161/172/161
f 16/170/2 17/169/159 161/174/161
f 161/174/161 17/169/159 162/175/162
f 17/169/159 18/5/5 162/175/162
f 162/175/162 18/5/5 19/143/133
f 18/5/5 2/4/4 19/143/133
