# Blender v2.69 (sub 0) OBJ File: ''
# www.blender.org
o Cube
v -1.000000 -1.000000 1.000000
v -1.000000 -1.000000 -1.000000
v 1.000000 -1.000000 -1.000000
v 1.000000 -1.000000 1.000000
v -1.000000 1.000000 0.999999
v -0.999999 1.000000 -1.000001
v 1.000000 1.000000 -1.000000
v 1.000000 1.000000 1.000000
vt 0.000000 0.000000
vt 1.000000 0.000000
vt 0.000000 1.000000
vt 0.163375 0.163375
vt 0.836625 0.163375
vt 0.163375 0.836625
vt 0.291686 0.740362
vt 0.292247 0.259077
vt 0.707753 0.740923
vt 1.000000 1.000000
vt 0.836625 0.836625
vt 0.708314 0.259638
vn 0.000000 -1.000000 0.000000
vn 0.000000 1.000000 0.000000
vn -1.000000 -0.000000 0.000000
vn 0.000000 -0.000000 -1.000000
vn 1.000000 -0.000000 0.000000
vn -0.000000 0.000000 1.000000
vn -1.000000 0.000000 -0.000001
s off
f 1/1/1 2/2/1 4/3/1
f 5/1/2 8/2/2 6/3/2
f 1/1/3 5/2/3 2/3/3
f 2/4/4 6/5/4 3/6/4
f 3/1/5 7/2/5 4/3/5
f 5/7/6 1/8/6 8/9/6
f 2/2/1 3/10/1 4/3/1
f 8/2/2 7/10/2 6/3/2
f 5/2/7 6/10/7 2/3/7
f 6/5/4 7/11/4 3/6/4
f 7/2/5 8/10/5 4/3/5
f 1/8/6 4/12/6 8/9/6
